<?xml version="1.0" standalone="no"?><!DOCTYPE svg PUBLIC "-//W3C//DTD SVG 1.1//EN" "http://www.w3.org/Graphics/SVG/1.1/DTD/svg11.dtd"><svg t="1547217970056" class="icon" style="" viewBox="0 0 1024 1024" version="1.1" xmlns="http://www.w3.org/2000/svg" p-id="18936" xmlns:xlink="http://www.w3.org/1999/xlink" width="200" height="200"><defs><style type="text/css"></style></defs><path d="M972.8 532.48H128c-15.36 0-25.6-15.36-25.6-25.6s10.24-25.6 25.6-25.6H972.8c15.36 0 25.6 10.24 25.6 25.6s-10.24 25.6-25.6 25.6z" fill="#333333" p-id="18937"></path><path d="M87.04 532.48c-5.12 0-15.36 0-20.48-5.12-10.24-10.24-10.24-25.6 0-35.84l307.2-307.2c10.24-10.24 25.6-10.24 35.84 0s10.24 20.48 0 30.72l-307.2 307.2c-5.12 5.12-10.24 10.24-15.36 10.24z" fill="#333333" p-id="18938"></path><path d="M394.24 839.68c-5.12 0-15.36 0-20.48-5.12l-307.2-307.2c-10.24-10.24-10.24-25.6 0-35.84s25.6-10.24 35.84 0l307.2 307.2c10.24 10.24 10.24 25.6 0 35.84 0 0-10.24 5.12-15.36 5.12z" fill="#333333" p-id="18939"></path></svg>