<?xml version="1.0" standalone="no"?><!DOCTYPE svg PUBLIC "-//W3C//DTD SVG 1.1//EN" "http://www.w3.org/Graphics/SVG/1.1/DTD/svg11.dtd"><svg t="1547361858484" class="icon" style="" viewBox="0 0 1024 1024" version="1.1" xmlns="http://www.w3.org/2000/svg" p-id="1992" xmlns:xlink="http://www.w3.org/1999/xlink" width="200" height="200"><defs><style type="text/css"></style></defs><path d="M950.857079 877.714307C950.857079 917.467437 917.467384 950.857132 877.714211 950.857132L143.908573 952.064001C104.155443 952.064001 71.936009 919.844567 71.936009 880.091438L73.142878 146.285799C73.142878 106.532626 106.532573 73.142931 146.285703 73.142931L548.571391 73.142931 548.571391 6.3e-05 146.285703 6.3e-05C66.816009 6.3e-05 1.0e-05 81.225235 1.0e-05 160.694929L1.0e-05 880.091438C1.0e-05 959.561132 64.438878 1024 143.908573 1024L863.305081 1024C942.774775 1024 1023.999947 957.184001 1023.999947 877.714307L1023.999947 475.428619 950.857079 475.428619 950.857079 877.714307 950.857079 877.714307ZM986.660513 6.3e-05 731.428518 6.3e-05C710.692519 0.036671 694.89365 16.786367 694.857084 36.571497 694.820519 56.35667 710.692519 73.179496 731.428518 73.142931L892.15995 71.972669 340.40683 598.198878C325.778265 612.132616 325.778265 634.697181 340.40683 648.630877 354.962264 662.564615 378.660568 662.564615 393.252568 648.630877L949.796514 117.833234 950.857079 292.571492C950.820514 312.356622 966.692514 329.179491 987.428513 329.142926 1008.164513 329.10636 1023.963339 312.356622 1023.999947 292.571492L1023.999947 35.657236C1024.036513 15.872063 1007.396513-0.036502 986.660513 6.3e-05L986.660513 6.3e-05Z" p-id="1993"></path></svg>