<?xml version="1.0" standalone="no"?><!DOCTYPE svg PUBLIC "-//W3C//DTD SVG 1.1//EN" "http://www.w3.org/Graphics/SVG/1.1/DTD/svg11.dtd"><svg t="1547366303230" class="icon" style="" viewBox="0 0 1024 1024" version="1.1" xmlns="http://www.w3.org/2000/svg" p-id="3442" xmlns:xlink="http://www.w3.org/1999/xlink" width="200" height="200"><defs><style type="text/css"></style></defs><path d="M856 320.8c-14.1-14.1-36.9-14.1-50.9 0L505.5 620.3 205.9 320.8c-14.1-14.1-36.9-14.1-50.9 0-14.1 14.1-14.1 36.9 0 50.9l321.4 321.4c1 1.3 2.1 2.6 3.3 3.9 7 7 16.2 10.5 25.5 10.5h0.6c9.2 0 18.4-3.5 25.5-10.5 1.2-1.2 2.3-2.5 3.3-3.9L856 371.7c14-14.1 14-36.9 0-50.9z" p-id="3443"></path></svg>