<?xml version="1.0" standalone="no"?><!DOCTYPE svg PUBLIC "-//W3C//DTD SVG 1.1//EN" "http://www.w3.org/Graphics/SVG/1.1/DTD/svg11.dtd"><svg t="1547292584068" class="icon" style="" viewBox="0 0 1024 1024" version="1.1" xmlns="http://www.w3.org/2000/svg" p-id="2579" xmlns:xlink="http://www.w3.org/1999/xlink" width="200" height="200"><defs><style type="text/css"></style></defs><path d="M825.9328 546.1248V998.4a25.6 25.6 0 0 1-25.6 25.6h-164.352a25.6 25.6 0 0 1-25.6-25.6V742.4a25.6 25.6 0 0 0-25.6-25.6H420.352a25.6 25.6 0 0 0-25.6 25.6v256a25.6 25.6 0 0 1-25.6 25.6H204.8a25.6 25.6 0 0 1-25.6-25.6V546.1248H25.984a25.6 25.6 0 0 1-18.2272-43.5712L503.7056 0l495.9232 502.528a25.6 25.6 0 0 1-18.2272 43.5968h-155.4688z" fill="#cccccc" p-id="2580" data-spm-anchor-id="a313x.7781069.0.i0" class="selected"></path></svg>