<?xml version="1.0" standalone="no"?><!DOCTYPE svg PUBLIC "-//W3C//DTD SVG 1.1//EN" "http://www.w3.org/Graphics/SVG/1.1/DTD/svg11.dtd"><svg t="1547365352465" class="icon" style="" viewBox="0 0 1024 1024" version="1.1" xmlns="http://www.w3.org/2000/svg" p-id="2726" xmlns:xlink="http://www.w3.org/1999/xlink" width="200" height="200"><defs><style type="text/css"></style></defs><path d="M65.8 535.5v-49.6H960v49.6H65.8z m819.7-421.9H612.7V63.9h272.8c27.4 0 49.6 22.2 49.6 49.6v297.8h-49.6V113.6zM140.3 411.4H90.6V113.6c0-27.4 22.2-49.6 49.6-49.6H414v49.6H140.3v297.8z m0 496.5h273.8v49.6H140.3c-27.4 0-49.6-22.2-49.6-49.6V610h49.6v297.9zM885.5 610h49.6v297.9c0 27.4-22.2 49.6-49.6 49.6H612.7v-49.6h272.8V610z" p-id="2727"></path></svg>