<?xml version="1.0" standalone="no"?><!DOCTYPE svg PUBLIC "-//W3C//DTD SVG 1.1//EN"
        "http://www.w3.org/Graphics/SVG/1.1/DTD/svg11.dtd">
<svg t="1546960549024" class="icon" style="" viewBox="0 0 1024 1024" version="1.1" xmlns="http://www.w3.org/2000/svg"
     p-id="2060" xmlns:xlink="http://www.w3.org/1999/xlink" width="200" height="200">
    <defs>
        <style type="text/css"></style>
    </defs>
    <path d="M853.331629 684.310102V417.18367c0-123.87138-66.978513-223.459469-171.118441-275.493632C661.7248 60.350218 593.539282 0 512.035801 0c-79.161074 0-143.408485 57.874836-163.661609 138.508865-107.934831 51.041964-177.71605 152.235983-177.716049 278.674805v266.69682C109.019089 697.689439 66.057917 747.217533 66.057917 809.797641v45.589986c0 38.869632 32.732322 70.579069 72.819187 70.579069h301.751091c-2.199203 7.057907-4.480237 14.259018-4.480236 22.145462a75.857156 75.857156 0 0 0 151.704082 0c0-7.886444-2.270805-15.097783-4.480236-22.227293h301.751091c40.127781 0 72.819187-31.709437 72.819187-70.579068v-45.579758C957.931854 747.728975 915.604871 698.446373 853.331629 684.310102zM512.035801 75.857156c26.247231 0 50.438462 12.36668 68.645816 31.934471a401.07323 401.07323 0 0 0-134.182062-0.225035c16.867375-19.649622 39.78-31.709437 65.536246-31.709436z m370.079813 774.221698l-740.200541 5.226943v-45.579758c0-31.709437 26.400663-53.854898 66.671647-53.854899h37.928578V417.18367c0-140.933103 109.152064-239.355103 265.479588-239.355103s265.479587 98.381085 265.479587 239.355103V714.076057H409.97233a37.928578 37.928578 0 0 0 0 75.857156h467.775565a50.418004 50.418004 0 0 1 4.326804 19.874656z"
          fill="#666666" p-id="2061"></path>
</svg>